{
  "accessors": [
    {
      "bufferView": 2,
      "componentType": 5126,
      "count": 1912,
      "max": [
        0.32106000185012817,
        4.2665128707885742,
        0.45542600750923157
      ],
      "min": [
        -0.32106000185012817,
        -5.0421018600463867,
        -0.90159898996353149
      ],
      "type": "VEC3"
    },
    {
      "bufferView": 2,
      "byteOffset": 22944,
      "componentType": 5126,
      "count": 1912,
      "max": [
        1,
        1,
        1
      ],
      "min": [
        -1,
        -1,
        -0.99999845027923584
      ],
      "type": "VEC3"
    },
    {
      "bufferView": 3,
      "componentType": 5126,
      "count": 1912,
      "max": [
        1,
        1,
        0.99626874923706055,
        1
      ],
      "min": [
        -1,
        -0.14153283834457397,
        -0.99985885620117188,
        -1
      ],
      "type": "VEC4"
    },
    {
      "bufferView": 1,
      "componentType": 5126,
      "count": 1912,
      "max": [
        0.96088999509811401,
        0.43608599901199341
      ],
      "min": [
        0.039110001176595688,
        0.047775000333786011
      ],
      "type": "VEC2"
    },
    {
      "bufferView": 0,
      "componentType": 5125,
      "count": 6438,
      "max": [
        1911
      ],
      "min": [
        0
      ],
      "type": "SCALAR"
    }
  ],
  "asset": {
    "extras": {
      "author": "djetty (https://sketchfab.com/djetty)",
      "license": "CC-BY-4.0 (http://creativecommons.org/licenses/by/4.0/)",
      "source": "https://sketchfab.com/models/7c2b8af8bf20453a9aab09a762584c3d",
      "title": "Busse-Groove Master Knife"
    },
    "generator": "Sketchfab-3.19.6",
    "version": "2.0"
  },
  "bufferViews": [
    {
      "buffer": 0,
      "byteLength": 25752,
      "byteOffset": 0,
      "name": "floatBufferViews",
      "target": 34963
    },
    {
      "buffer": 0,
      "byteLength": 15296,
      "byteOffset": 25752,
      "byteStride": 8,
      "name": "floatBufferViews",
      "target": 34962
    },
    {
      "buffer": 0,
      "byteLength": 45888,
      "byteOffset": 41048,
      "byteStride": 12,
      "name": "floatBufferViews",
      "target": 34962
    },
    {
      "buffer": 0,
      "byteLength": 30592,
      "byteOffset": 86936,
      "byteStride": 16,
      "name": "floatBufferViews",
      "target": 34962
    }
  ],
  "buffers": [
    {
      "byteLength": 117528,
      "uri": "scene.bin"
    }
  ],
  "images": [
    {
      "uri": "textures/BGMKnife_normal.png"
    },
    {
      "uri": "textures/BGMKnife_metallicRoughness.png"
    },
    {
      "uri": "textures/BGMKnife_baseColor.png"
    }
  ],
  "materials": [
    {
      "doubleSided": true,
      "emissiveFactor": [
        0,
        0,
        0
      ],
      "name": "BGMKnife",
      "normalTexture": {
        "index": 0,
        "scale": 1,
        "texCoord": 0
      },
      "pbrMetallicRoughness": {
        "baseColorFactor": [
          1,
          1,
          1,
          1
        ],
        "baseColorTexture": {
          "index": 2,
          "texCoord": 0
        },
        "metallicFactor": 1,
        "metallicRoughnessTexture": {
          "index": 1,
          "texCoord": 0
        },
        "roughnessFactor": 1
      }
    }
  ],
  "meshes": [
    {
      "primitives": [
        {
          "attributes": {
            "NORMAL": 1,
            "POSITION": 0,
            "TANGENT": 2,
            "TEXCOORD_0": 3
          },
          "indices": 4,
          "material": 0,
          "mode": 4
        }
      ]
    }
  ],
  "nodes": [
    {
      "children": [
        1
      ],
      "name": "RootNode (gltf orientation matrix)",
      "rotation": [
        -0.70710678118654746,
        -0,
        -0,
        0.70710678118654757
      ]
    },
    {
      "children": [
        2
      ],
      "matrix": [
        0.51997381448745728,
        -0.85418218374252319,
        0,
        0,
        0.85418218374252319,
        0.51997381448745728,
        0,
        0,
        0,
        0,
        1,
        0,
        0.33124759793281555,
        -0.1861521303653717,
        0,
        1
      ],
      "name": "RootNode (model correction matrix)"
    },
    {
      "children": [
        3
      ],
      "name": "BusseGrooveMasterKnife.obj.cleaner.gles"
    },
    {
      "mesh": 0,
      "name": ""
    }
  ],
  "samplers": [
    {
      "magFilter": 9729,
      "minFilter": 9987,
      "wrapS": 10497,
      "wrapT": 10497
    }
  ],
  "scene": 0,
  "scenes": [
    {
      "name": "OSG_Scene",
      "nodes": [
        0
      ]
    }
  ],
  "textures": [
    {
      "sampler": 0,
      "source": 0
    },
    {
      "sampler": 0,
      "source": 1
    },
    {
      "sampler": 0,
      "source": 2
    }
  ]
}

